# xmcd
# 
# Track frame offsets:
#     150
#     24267
#     40847
# 
# Disc length: 865
# 
# Revision: 1
# Processed by: cddbd v1.5.2PL0 Copyright (c) Steve Scherf et al.
# Submitted via: BonkEnc v1.0
# 
DISCID=17035f03
DTITLE=Sowelu , EXILE , DOBERMAN INC - 24karats - type S - 
DYEAR=2007
DGENRE=JPop
TTITLE0=24karats - type S - 
TTITLE1=SEPTEMBER
TTITLE2=24karats - type S - Instrumental - 
EXTD=
EXTT0=
EXTT1=
EXTT2=
PLAYORDER=
